<?xml version="1.0" encoding="UTF-8"?>
<svg xmlns="http://www.w3.org/2000/svg" viewBox="0 0 394 108">
  <g fill="#745850">
    <path d="M3.38 27.615h8.632l21.01 39.64v-39.64h6.222V75H30.61L9.6 35.36V75H3.38V27.615z"/>
    <path d="M51.146 60.972v-21.52h5.84V60.75q0 5.046 1.967 7.585 1.968 2.507 5.903 2.507 4.73 0 7.46-3.015 2.76-3.015 2.76-8.22V39.453h5.84V75h-5.84v-5.46q-2.126 3.238-4.95 4.825-2.794 1.555-6.507 1.555-6.13 0-9.3-3.808-3.18-3.81-3.18-11.14zM65.84 38.596z"/>
    <path d="M113.606 44.912q-.983-.57-2.158-.825-1.142-.286-2.54-.286-4.95 0-7.616 3.24-2.634 3.21-2.634 9.24V75h-5.872V39.453h5.872v5.523q1.84-3.238 4.792-4.793 2.952-1.587 7.173-1.587.603 0 1.333.095.73.07 1.62.23l.03 6z"/>
    <path d="M142.457 40.5v5.523q-2.476-1.27-5.142-1.904-2.666-.64-5.523-.64-4.348 0-6.538 1.33-2.158 1.33-2.158 4 0 2.03 1.555 3.2 1.56 1.14 6.26 2.19l2 .44q6.22 1.33 8.83 3.77 2.64 2.41 2.64 6.76 0 4.95-3.93 7.84-3.9 2.88-10.76 2.88-2.85 0-5.96-.57-3.08-.54-6.502-1.65v-6.03q3.24 1.68 6.38 2.54 3.14.82 6.22.82 4.128 0 6.35-1.398 2.22-1.43 2.22-4 0-2.38-1.616-3.65-1.59-1.27-7.015-2.445l-2.03-.477q-5.43-1.14-7.84-3.49-2.41-2.38-2.41-6.505 0-5.01 3.55-7.74 3.558-2.73 10.096-2.73 3.238 0 6.094.475 2.852.48 5.27 1.43z"/>
    <path d="M184.097 55.767v2.856h-26.85q.38 6.03 3.618 9.204 3.27 3.142 9.077 3.142 3.364 0 6.506-.83 3.174-.83 6.284-2.48v5.52q-3.142 1.33-6.442 2.03-3.3.7-6.697.7-8.506 0-13.49-4.95-4.95-4.96-4.95-13.4 0-8.73 4.697-13.84 4.73-5.15 12.727-5.15 7.173 0 11.33 4.63 4.19 4.6 4.19 12.533zm-5.84-1.714q-.063-4.793-2.697-7.65-2.603-2.856-6.92-2.856-4.887 0-7.84 2.762-2.92 2.76-3.363 7.77l20.82-.03z"/>
    <path d="M216.343 40.5v5.523q-2.475-1.27-5.14-1.904-2.667-.64-5.524-.64-4.35 0-6.54 1.33-2.16 1.33-2.16 4 0 2.03 1.55 3.2 1.55 1.14 6.25 2.19l2 .44q6.22 1.33 8.82 3.77 2.63 2.41 2.63 6.76 0 4.95-3.94 7.84-3.91 2.88-10.76 2.88-2.86 0-5.97-.57-3.08-.54-6.51-1.65v-6.03q3.23 1.68 6.38 2.54 3.14.82 6.22.82 4.12 0 6.34-1.398 2.22-1.43 2.22-4 0-2.38-1.62-3.65-1.59-1.27-7.018-2.445l-2.03-.477q-5.43-1.14-7.84-3.49-2.416-2.38-2.416-6.505 0-5.01 3.554-7.74 3.553-2.73 10.09-2.73 3.24 0 6.095.475t5.27 1.43z"/>
  </g>
  <g fill="#00b3b3">
    <path d="M218.27 30.58h6.383l9.827 39.493 9.795-39.494h7.104l9.82 39.49 9.8-39.49h6.41L265.68 77.3h-7.948l-9.858-40.558-9.95 40.558h-7.95L218.27 30.58z"/>
    <path d="M311.747 58.337v2.817h-26.475q.375 5.946 3.567 9.075 3.22 3.09 8.95 3.09 3.31 0 6.41-.82 3.13-.814 6.19-2.44v5.444q-3.1 1.314-6.355 2.003-3.256.69-6.604.69-8.387 0-13.3-4.884-4.882-4.88-4.882-13.206 0-8.602 4.634-13.64 4.663-5.07 12.55-5.07 7.072 0 11.17 4.57 4.132 4.537 4.132 12.36zm-5.758-1.69q-.07-4.725-2.66-7.542-2.57-2.816-6.83-2.816-4.82 0-7.73 2.72-2.88 2.72-3.32 7.67l20.53-.04z"/>
    <path d="M351.18 58.337v2.817h-26.477q.376 5.946 3.568 9.075 3.23 3.09 8.95 3.09 3.32 0 6.42-.82 3.13-.814 6.2-2.44v5.444q-3.1 1.314-6.35 2.003-3.25.69-6.6.69-8.384 0-13.3-4.884-4.88-4.88-4.88-13.206 0-8.602 4.63-13.64 4.66-5.07 12.55-5.07 7.07 0 11.17 4.57 4.13 4.537 4.13 12.36zm-5.76-1.69q-.062-4.725-2.66-7.542-2.566-2.816-6.822-2.816-4.82 0-7.73 2.72-2.88 2.72-3.317 7.67l20.53-.04z"/>
    <path d="M360.41 28.607h5.79v28.76l17.18-15.115h7.356l-18.59 16.398 19.372 18.652h-7.51L366.2 60.184v17.118h-5.79V28.607z"/>
  </g>
  <g fill="#00b3b3">
    <path d="M59.897 5.485h21.585V8.39h-9.058V31h-3.47V8.39h-9.057V5.485z"/>
    <path d="M79.038 23.446V11.86h3.145v11.467q0 2.717 1.06 4.084 1.06 1.35 3.178 1.35 2.55 0 4.02-1.62 1.49-1.62 1.49-4.42V11.86h3.15V31h-3.15v-2.94q-1.14 1.744-2.66 2.598-1.5.838-3.5.838-3.3 0-5-2.05-1.71-2.052-1.71-6zm7.913-12.048z"/>
    <path d="M115.354 12.594v2.94q-1.333-.735-2.683-1.094-1.33-.376-2.7-.376-3.05 0-4.75 1.948-1.69 1.93-1.69 5.435 0 3.503 1.69 5.45 1.7 1.933 4.75 1.933 1.37 0 2.7-.36 1.35-.375 2.69-1.11v2.905q-1.31.615-2.73.923-1.4.308-2.99.308-4.32 0-6.87-2.718-2.54-2.717-2.54-7.33 0-4.684 2.57-7.367 2.58-2.68 7.06-2.68 1.46 0 2.84.31 1.39.29 2.69.89z"/>
    <path d="M133.06 12.423v2.974q-1.334-.684-2.77-1.025-1.435-.342-2.973-.342-2.34 0-3.52.718-1.163.717-1.163 2.153 0 1.1.838 1.73.837.62 3.366 1.18l1.077.24q3.35.72 4.75 2.04 1.42 1.3 1.42 3.64 0 2.67-2.12 4.22-2.102 1.56-5.793 1.56-1.538 0-3.213-.31-1.66-.29-3.51-.89v-3.25q1.74.91 3.43 1.37 1.69.45 3.35.45 2.22 0 3.41-.75 1.19-.77 1.19-2.15 0-1.28-.87-1.96-.86-.68-3.78-1.31l-1.1-.253q-2.92-.61-4.22-1.88-1.3-1.28-1.3-3.5 0-2.7 1.91-4.17 1.91-1.47 5.43-1.47 1.742 0 3.28.257 1.54.256 2.836.77z"/>
    <path d="M146.526 14.064q-2.53 0-4 1.982-1.47 1.966-1.47 5.4 0 3.436 1.454 5.418 1.47 1.966 4.016 1.966 2.512 0 3.982-1.983 1.47-1.982 1.47-5.4 0-3.4-1.47-5.384-1.47-2-3.982-2zm0-2.666q4.1 0 6.443 2.666 2.34 2.666 2.34 7.383 0 4.7-2.34 7.383-2.35 2.666-6.45 2.666-4.12 0-6.46-2.666-2.33-2.684-2.33-7.383 0-4.717 2.32-7.383 2.34-2.666 6.46-2.666z"/>
    <path d="M176.416 19.447V31h-3.145V19.55q0-2.717-1.05-4.068-1.06-1.35-3.18-1.35-2.54 0-4.01 1.624-1.47 1.623-1.47 4.426V31h-3.16V11.86h3.16v2.973q1.13-1.726 2.65-2.58 1.54-.855 3.54-.855 3.3 0 4.99 2.05 1.69 2.034 1.69 6z"/>
  </g>
  <g fill="#755950">
    <path d="M232.454 81.775h10.473v2.075h-8.008v5.37h7.22v2.076h-7.23V100h-2.47V81.775z"/>
    <path d="M251.18 87.903q-1.807 0-2.857 1.416-1.05 1.4-1.05 3.85t1.038 3.87q1.05 1.4 2.87 1.4 1.8 0 2.85-1.42t1.05-3.86q0-2.43-1.05-3.85-1.05-1.43-2.84-1.43zm0-1.904q2.93 0 4.6 1.9 1.674 1.9 1.674 5.27 0 3.35-1.673 5.27-1.67 1.9-4.6 1.9-2.94 0-4.61-1.91-1.66-1.92-1.66-5.28 0-3.37 1.66-5.28 1.67-1.9 4.62-1.9z"/>
    <path d="M260.933 94.604v-8.276h2.246v8.19q0 1.942.75 2.92.75.963 2.27.963 1.82 0 2.87-1.16 1.06-1.15 1.06-3.16v-7.75h2.24V100h-2.25v-2.1q-.82 1.246-1.91 1.856-1.08.598-2.5.598-2.36 0-3.58-1.465-1.22-1.47-1.22-4.29zm5.65-8.605z"/>
    <path d="M288.398 91.748V100h-2.246v-8.18q0-1.94-.756-2.904-.757-.964-2.27-.964-1.82 0-2.87 1.16t-1.05 3.16V100h-2.258V86.328h2.26v2.124q.804-1.233 1.89-1.843 1.1-.61 2.527-.61 2.356 0 3.565 1.46 1.208 1.45 1.208 4.28z"/>
    <path d="M301.9 88.403v-7.397h2.246V100H301.9v-2.05q-.71 1.22-1.795 1.818-1.074.586-2.588.586-2.478 0-4.04-1.978-1.55-1.977-1.55-5.2 0-3.222 1.55-5.2Q295.04 86 297.517 86q1.514 0 2.588.597 1.086.586 1.794 1.806zm-7.654 4.773q0 2.478 1.013 3.894 1.02 1.404 2.8 1.404t2.81-1.404q1.02-1.416 1.02-3.894t-1.03-3.882q-1.03-1.416-2.81-1.416t-2.81 1.416q-1.02 1.404-1.02 3.882z"/>
    <path d="M314.985 93.127q-2.722 0-3.772.623-1.05.623-1.05 2.124 0 1.196.782 1.904.793.696 2.148.696 1.868 0 2.99-1.318 1.136-1.33 1.136-3.528v-.5h-2.24zm4.48-.927v7.8h-2.246v-2.075q-.77 1.245-1.92 1.843-1.15.586-2.81.586-2.1 0-3.35-1.172-1.24-1.184-1.24-3.16 0-2.31 1.54-3.48 1.55-1.172 4.61-1.172h3.15v-.22q0-1.55-1.03-2.393-1.02-.854-2.86-.854-1.17 0-2.29.28-1.11.28-2.14.843V86.95q1.232-.475 2.392-.707 1.16-.244 2.26-.244 2.964 0 4.43 1.53 1.463 1.54 1.463 4.66z"/>
    <path d="M326.326 82.446v3.882h4.626v1.746h-4.626v7.422q0 1.672.45 2.148.465.476 1.87.476h2.306V100h-2.307q-2.6 0-3.59-.964-.988-.977-.988-3.54v-7.422h-1.648v-1.746h1.64v-3.882h2.26z"/>
    <path d="M333.918 86.328h2.247V100h-2.247V86.328zm0-5.322h2.247v2.844h-2.247v-2.844z"/>
    <path d="M346.15 87.903q-1.807 0-2.857 1.416-1.05 1.4-1.05 3.85t1.038 3.87q1.05 1.4 2.87 1.4 1.8 0 2.85-1.42t1.05-3.86q0-2.43-1.05-3.85-1.05-1.43-2.84-1.43zm0-1.904q2.93 0 4.602 1.9 1.672 1.9 1.672 5.27 0 3.35-1.672 5.27-1.672 1.9-4.602 1.9-2.942 0-4.614-1.91-1.66-1.92-1.66-5.28 0-3.37 1.66-5.28 1.672-1.9 4.614-1.9z"/>
    <path d="M367.5 91.748V100h-2.246v-8.18q0-1.94-.757-2.904t-2.27-.964q-1.82 0-2.87 1.16t-1.05 3.16V100h-2.257V86.328h2.258v2.124q.806-1.233 1.892-1.843 1.1-.61 2.527-.61 2.356 0 3.565 1.46 1.208 1.45 1.208 4.28z"/>
  </g>
  <path fill="#00b3b3" d="M209 89h20v5h-20z"/>
  <path fill="#00b3b3" d="M217 81h5v20h-5z"/>
</svg>
